<svg id="Layer_1" data-name="Layer 1" xmlns="http://www.w3.org/2000/svg" viewBox="0 0 100 48"><defs><style>.cls-1{fill:#d3d3d3;}.cls-2{fill:#6c0;}</style></defs><title>noodleArtboard 1</title><path class="cls-1" d="M.83,1.1H9.19V46.32H.83Z"/><path class="cls-1" d="M33.41,12.53c11.49,0,18.15,8.64,18.15,17.34S44.9,47.2,33.41,47.2,15.26,38.57,15.26,29.87,21.92,12.53,33.41,12.53Zm0,28A10.48,10.48,0,0,0,44.08,29.87,10.48,10.48,0,0,0,33.41,19.19,10.48,10.48,0,0,0,22.73,29.87,10.48,10.48,0,0,0,33.41,40.54Z"/><path class="cls-2" d="M61.79,32.06h-5.4V24.14h5.4V1.1H83.32c10.08,0,16.27,6.62,16.27,15.48S93.4,32.06,83.32,32.06H70.14V46.32H61.79Zm8.35-7.92H82.67c5.9,0,8.57-3.53,8.57-7.56S88.57,9,82.67,9H70.14Z"/></svg>